<svg xmlns="http://www.w3.org/2000/svg" viewBox="0 0 1024 1024"><!-- Windows tray/.exe icon: light squircle tile (app's default light theme) + deep bars. --><!-- A .ico can't be theme-aware, so this pins the light palette: #F2F3F8 tile with --><!-- deep #177A58/#C2334D bars. The bar rects share ui/public/favicon.svg's geometry --><!-- (here scaled 0.70 + centered inside the tile); move both together if it changes. --><style>.bg{fill:#F2F3F8}.g{fill:#177A58}.r{fill:#C2334D}</style><rect class="bg" x="0" y="0" width="1024" height="1024" rx="224"/><g transform="translate(512 512) scale(0.7) translate(-512 -512)"><rect class="g" x="62" y="146" width="441" height="123" rx="18"/><rect class="r" x="539" y="146" width="423" height="123" rx="18"/><rect class="g" x="368" y="298" width="135" height="123" rx="18"/><rect class="r" x="539" y="298" width="141" height="123" rx="18"/><rect class="g" x="91" y="450" width="412" height="123" rx="18"/><rect class="r" x="539" y="450" width="112" height="123" rx="18"/><rect class="g" x="350" y="602" width="153" height="123" rx="18"/><rect class="r" x="539" y="602" width="153" height="123" rx="18"/><rect class="g" x="115" y="754" width="388" height="123" rx="18"/><rect class="r" x="539" y="754" width="123" height="123" rx="18"/></g></svg>
